<svg xmlns="http://www.w3.org/2000/svg" x="0px" y="0px"
     width="32" height="32"
     viewBox="0 0 172 172"
     style=" fill:#000000;"><g fill="none" fill-rule="nonzero" stroke="none" stroke-width="1" stroke-linecap="butt" stroke-linejoin="miter" stroke-miterlimit="10" stroke-dasharray="" stroke-dashoffset="0" font-family="none" font-weight="none" font-size="none" text-anchor="none" style="mix-blend-mode: normal"><path d="M0,172v-172h172v172z" fill="none"></path><g fill="#a1a0a0"><path d="M21.5,26.875v37.625h-5.375v10.75h10.75c0,0.89584 -0.39634,1.89006 -1.98413,3.66382c-1.58779,1.77376 -4.18808,3.92824 -7.0127,6.49829c-5.64923,5.1401 -12.50317,12.73777 -12.50317,24.21899v3.49585l3.2019,1.41724c0,0 2.00139,0.83611 3.60083,1.50122c-0.90944,2.35109 -1.42773,4.90123 -1.42773,7.57959c0,11.81067 9.68933,21.5 21.5,21.5c10.23451,0 18.8509,-7.28527 20.9751,-16.91235c3.32555,0.47366 6.61173,0.78735 9.76318,0.78735h30.15039c6.18139,0 12.07042,-2.29802 16.75488,-6.26734c0.23559,-0.08359 3.69419,-1.13858 8.63989,-2.42505c-0.17001,1.08685 -0.28345,2.18776 -0.28345,3.31739c0,11.81067 9.68933,21.5 21.5,21.5c11.81067,0 21.5,-9.68933 21.5,-21.5c0,-3.1039 -0.69424,-6.04632 -1.88965,-8.72388c0.64452,-0.00767 1.23793,-0.06299 1.88965,-0.06299h5.375v-8.62939l-0.58789,-1.14429c-2.28455,-4.48552 -6.50503,-8.67338 -12.00977,-12.3667c-4.35432,-2.92147 -9.53889,-5.3435 -15.18018,-6.25684c-1.59025,-7.4612 -6.48764,-25.73147 -19.74683,-43.44092h9.89966v-16.125h-13.4375c-3.50384,0 -6.45813,2.25078 -7.56909,5.375h-16.61841v10.75h13.48999c5.66683,6.17973 9.90383,12.67602 13.23803,18.85449c-0.76219,7.928 -7.36472,18.39164 -14.62378,26.58106c-7.11006,8.02133 -13.17371,12.82108 -14.24585,13.68945h-13.9834c-2.30562,0 -3.93795,-0.55218 -4.57715,-0.99732c-0.63921,-0.44513 -0.79785,-0.44113 -0.79785,-1.92114c0,-3.25703 1.79994,-6.37585 4.38818,-10.04663c2.13751,-3.03153 4.63534,-6.58306 5.59546,-11.14893c0.50055,-0.83404 0.76541,-1.78827 0.76636,-2.76099c0,-3.9174 -2.18903,-7.3589 -5.375,-9.23828v-39.13672zM32.25,37.625h10.75v10.75h10.75v-10.75h10.75v26.875h-32.25zM37.625,75.25h32.25c0,0.88485 -1.60143,3.76375 -4.38818,7.71607c-2.78675,3.95231 -6.36182,9.23126 -6.36182,16.24048c0,4.35724 2.18645,8.50763 5.40649,10.75c3.22005,2.24237 6.96113,2.91846 10.71851,2.91846h16.125c1.21596,0.00151 2.39651,-0.40927 3.34888,-1.16528c0,0 8.38577,-6.65687 16.79688,-16.14599c4.82744,-5.44616 9.81635,-11.82787 13.23804,-18.802c2.3101,6.57386 3.34644,11.51572 3.61132,12.98609l-24.52344,24.12451v-0.0105c-2.8625,2.811 -6.70452,4.38818 -10.70801,4.38818h-30.15039c-9.10502,0 -21.92697,-3.30355 -32.15552,-6.71875c-3.70226,-1.23614 -6.27381,-2.19287 -8.36694,-3.01294c-0.33463,-0.17288 -0.68649,-0.3101 -1.0498,-0.40942c-1.78317,-0.71791 -3.22397,-1.33968 -4.34619,-1.81616c1.08684,-5.20282 3.88054,-9.12759 8.052,-12.9231c2.55038,-2.32053 5.32509,-4.556 7.76855,-7.28565c2.44346,-2.72965 4.73462,-6.35482 4.73462,-10.83398zM136.35913,96.97046c3.86258,0.49833 8.07501,2.23952 11.68433,4.66113c1.79759,1.20607 2.2051,2.18499 3.55884,3.50635c-0.31752,0.02006 -0.6081,0.05213 -0.92383,0.07349c-0.61513,-0.24379 -1.26999,-0.37191 -1.93164,-0.37793c-0.99609,-0.00426 -1.97378,0.26833 -2.82397,0.78736c-7.41839,0.66562 -13.77541,1.62112 -19.57886,2.64551c-0.05966,0.0095 -0.11916,0.02 -0.17847,0.0315c-0.53841,0.09545 -1.09598,0.18756 -1.6167,0.28345zM146.7312,115.54151c2.27794,1.96615 3.7688,4.79995 3.7688,8.08349c0,6.00208 -4.74792,10.75 -10.75,10.75c-6.00208,0 -10.75,-4.74792 -10.75,-10.75c0,-2.27777 0.72099,-4.32725 1.91065,-6.05737c4.68682,-0.83186 10.04015,-1.52414 15.82055,-2.02612zM22.23486,119.81421c1.83927,0.66746 3.12264,1.2182 5.19653,1.91064c4.70336,1.5704 9.93031,3.10642 15.25366,4.39869c-1.11086,4.76316 -5.29967,8.25146 -10.43506,8.25146c-6.00208,0 -10.75,-4.74792 -10.75,-10.75c0,-1.3549 0.26374,-2.62899 0.73486,-3.81079z"></path></g></g></svg>
