<svg xmlns="http://www.w3.org/2000/svg" x="0px" y="0px"
     width="32" height="32"
     viewBox="0 0 172 172"
     style=" fill:#000000;"><g fill="none" fill-rule="nonzero" stroke="none" stroke-width="1" stroke-linecap="butt" stroke-linejoin="miter" stroke-miterlimit="10" stroke-dasharray="" stroke-dashoffset="0" font-family="none" font-weight="none" font-size="none" text-anchor="none" style="mix-blend-mode: normal"><path d="M0,172v-172h172v172z" fill="none"></path><g fill="#a1a0a0"><path d="M50.16667,14.33333l-43,43l43,43v-35.83333h68.08333c17.77007,0 32.25,14.47993 32.25,32.25c0,17.77007 -14.47993,32.25 -32.25,32.25h-10.75v14.33333h10.75c25.58826,0 46.58333,-20.99507 46.58333,-46.58333c0,-25.58826 -20.99507,-46.58333 -46.58333,-46.58333h-68.08333zM21.5,129v14.33333h14.33333v-14.33333zM50.16667,129v14.33333h14.33333v-14.33333zM78.83333,129v14.33333h14.33333v-14.33333z"></path></g></g></svg>
